# xmcd CD database file
#
# Track frame offsets:
#	150
#	17625
#	33825
#	53762
#	68775
#	86162
#	102850
#	118325
#	131200
#	143562
#	160237
#	174850
#	187237
#	200612
#	212700
#	225225
#
# Disc length: 3182 seconds
#
# Revision: 3
# Processed by: cddbd v1.4PL0 Copyright (c) Steve Scherf et al.
# Submitted via: CDex 1.40Beta8
#
DISCID=dd0c6c10
DTITLE=Dolly Parton - The Collection
DYEAR=1993
DGENRE=Country
TTITLE0=Save The Last Dance For Me -1983
TTITLE1=I Walk The Line -1983
TTITLE2=Turn, Turn, Turn (To Everything There Is A Season) (Words From The Book Of Ecclesiates) -1983
TTITLE3=Downtown -1983
TTITLE4=We Had It All -1983
TTITLE5=She Don't Love You -1983
TTITLE6=We'll Sing In The Sunshine -1983
TTITLE7=I Can't Help Myself -1983
TTITLE8=Elusive Butterfly -1983
TTITLE9=The Great Pretender -1983
TTITLE10=Harper Valley PTA -1968
TTITLE11=D.I.V.O.R.C.E. -1968
TTITLE12=I Will Always Love You -1974
TTITLE13=Jolene -1974
TTITLE14=9 To 5 -1980
TTITLE15=Here You Come Again -1977
EXTD=The Collection\r\nAAD-Ariola, \r\nCD - VÖ-Datum: 7.6.93\r\nCountry und Western\r\n YEAR: 1993 ID3G: 2
EXTT0=
EXTT1=
EXTT2=
EXTT3=
EXTT4=
EXTT5=
EXTT6=
EXTT7=
EXTT8=
EXTT9=
EXTT10=
EXTT11=
EXTT12=
EXTT13=
EXTT14=
EXTT15=
PLAYORDER=
